<?xml version="1.0" encoding="UTF-8" standalone="no"?>
<!-- Created with Inkscape (http://www.inkscape.org/) -->

<svg
   width="122.60252mm"
   height="113.36485mm"
   viewBox="0 0 122.60252 113.36485"
   version="1.1"
   id="svg172"
   xml:space="preserve"
   sodipodi:docname="gnu_black_reg.svg"
   inkscape:version="1.2.2 (b0a8486541, 2022-12-01)"
   inkscape:export-filename="gnu_black_reg.png"
   inkscape:export-xdpi="61.73772"
   inkscape:export-ydpi="61.73772"
   xmlns:inkscape="http://www.inkscape.org/namespaces/inkscape"
   xmlns:sodipodi="http://sodipodi.sourceforge.net/DTD/sodipodi-0.dtd"
   xmlns="http://www.w3.org/2000/svg"
   xmlns:svg="http://www.w3.org/2000/svg"><sodipodi:namedview
     id="namedview12870"
     pagecolor="#ffffff"
     bordercolor="#000000"
     borderopacity="0.25"
     inkscape:showpageshadow="2"
     inkscape:pageopacity="0.0"
     inkscape:pagecheckerboard="0"
     inkscape:deskcolor="#d1d1d1"
     inkscape:document-units="mm"
     showgrid="false"
     inkscape:zoom="1.1984627"
     inkscape:cx="147.27201"
     inkscape:cy="210.68658"
     inkscape:window-width="1251"
     inkscape:window-height="1378"
     inkscape:window-x="2367"
     inkscape:window-y="112"
     inkscape:window-maximized="1"
     inkscape:current-layer="svg172" /><defs
     id="defs169"><clipPath
       clipPathUnits="userSpaceOnUse"
       id="clipPath17283"><rect
         style="fill:none;fill-opacity:1;stroke:#e8c29c;stroke-width:5.65795;stroke-dasharray:none;stroke-opacity:0.927611"
         id="rect17285"
         width="490.41129"
         height="460.66068"
         x="106.7408"
         y="547.56403"
         ry="0" /></clipPath><clipPath
       clipPathUnits="userSpaceOnUse"
       id="clipPath17287"><rect
         style="fill:none;fill-opacity:1;stroke:#e8c29c;stroke-width:5.65795;stroke-dasharray:none;stroke-opacity:0.927611"
         id="rect17289"
         width="490.41129"
         height="460.66068"
         x="106.7408"
         y="547.56403"
         ry="0" /></clipPath><clipPath
       clipPathUnits="userSpaceOnUse"
       id="clipPath17291"><rect
         style="fill:none;fill-opacity:1;stroke:#e8c29c;stroke-width:5.65795;stroke-dasharray:none;stroke-opacity:0.927611"
         id="rect17293"
         width="490.41129"
         height="460.66068"
         x="106.7408"
         y="547.56403"
         ry="0" /></clipPath><clipPath
       clipPathUnits="userSpaceOnUse"
       id="clipPath17295"><rect
         style="fill:none;fill-opacity:1;stroke:#e8c29c;stroke-width:5.65795;stroke-dasharray:none;stroke-opacity:0.927611"
         id="rect17297"
         width="490.41129"
         height="460.66068"
         x="106.7408"
         y="547.56403"
         ry="0" /></clipPath><clipPath
       clipPathUnits="userSpaceOnUse"
       id="clipPath17299"><rect
         style="fill:none;fill-opacity:1;stroke:#e8c29c;stroke-width:5.65795;stroke-dasharray:none;stroke-opacity:0.927611"
         id="rect17301"
         width="490.41129"
         height="460.66068"
         x="106.7408"
         y="547.56403"
         ry="0" /></clipPath><clipPath
       clipPathUnits="userSpaceOnUse"
       id="clipPath17303"><rect
         style="fill:none;fill-opacity:1;stroke:#e8c29c;stroke-width:5.65795;stroke-dasharray:none;stroke-opacity:0.927611"
         id="rect17305"
         width="490.41129"
         height="460.66068"
         x="106.7408"
         y="547.56403"
         ry="0" /></clipPath><clipPath
       clipPathUnits="userSpaceOnUse"
       id="clipPath17307"><rect
         style="fill:none;fill-opacity:1;stroke:#e8c29c;stroke-width:5.65795;stroke-dasharray:none;stroke-opacity:0.927611"
         id="rect17309"
         width="490.41129"
         height="460.66068"
         x="106.7408"
         y="547.56403"
         ry="0" /></clipPath><clipPath
       clipPathUnits="userSpaceOnUse"
       id="clipPath17311"><rect
         style="fill:none;fill-opacity:1;stroke:#e8c29c;stroke-width:1.497;stroke-dasharray:none;stroke-opacity:0.927611"
         id="rect17313"
         width="129.75465"
         height="121.88314"
         x="28.241837"
         y="144.87631"
         ry="0" /></clipPath></defs><g
     id="layer1"
     transform="translate(-0.83267774,-1.1378854)"
     style="fill:#000000;stroke:#000000;stroke-opacity:1"><path
       style="fill:#000000;fill-opacity:1;stroke:#000000;stroke-width:0;stroke-dasharray:none;stroke-opacity:1"
       d="m 49.258242,263.22302 c 0,-4.26607 5.54126,-12.73451 20.119562,-30.74776 4.449717,-5.49815 9.385124,-12.00776 10.967569,-14.46579 5.881102,-9.13518 6.779534,-7.04435 1.36724,3.18184 -2.321168,4.3857 -7.184476,11.30443 -14.025299,19.95293 -5.759613,7.28159 -12.019308,15.44392 -13.910433,18.13852 -3.407974,4.8559 -4.518639,5.8244 -4.518639,3.94026 z m 36.727797,-18.69408 c 0,-3.43416 7.063427,-17.79588 11.261735,-22.89795 1.85528,-2.25465 1.85528,-2.25465 3.586776,-0.74686 2.45127,2.13459 4.99906,-0.32552 11.86077,-11.45264 6.86837,-11.13793 7.54374,-9.40258 0.98817,2.53911 -9.1231,16.61876 -13.22501,21.14564 -16.175006,17.85085 -1.53391,-1.7132 -1.975501,-1.22657 -6.511788,7.17595 -4.893225,9.06367 -5.010657,9.24019 -5.010657,7.53154 z m 47.806371,-17.22936 c 0.76897,-7.86582 2.35962,-14.18546 8.42289,-33.46412 6.43519,-20.46124 7.04176,-30.40241 2.00241,-32.81794 -3.77632,-1.81012 -5.6367,-1.08684 -6.99215,2.71839 -1.40738,3.95102 -4.42958,5.29891 -4.42958,1.97558 0,-5.47481 7.53534,-14.32489 12.19682,-14.32489 10.64913,0 10.81813,13.21362 0.52935,41.3869 -2.76042,7.55874 -5.5335,17.74259 -6.98427,25.64896 -2.49304,13.58665 -5.81303,19.79719 -4.74547,8.87712 z m -50.962631,-27.2084 c -0.563203,-6.25981 -1.686336,-9.17551 -4.801073,-12.46379 -2.410819,-2.54513 -2.452202,-2.33021 1.415048,-7.34911 3.37392,-4.37867 8.712643,2.63794 8.694197,11.42665 -0.02162,10.302 -4.499335,17.37622 -5.308172,8.38625 z m -37.219218,1.31673 c -3.028427,-2.80714 12.302317,-29.55478 17.8707,-31.17912 1.806348,-0.52692 0.766741,1.30653 -5.983533,10.5526 -12.026765,16.47344 -5.769138,18.88918 12.219877,4.71745 8.814094,-6.94373 6.599894,-2.25658 -3.149935,6.66798 -10.00648,9.15949 -17.486702,12.45791 -20.957109,9.24109 z M 112.57889,182.1876 c -1.65267,-1.24046 -1.65267,-1.24046 -0.005,-4.83959 2.19727,-4.80017 2.50446,-5.01387 4.80078,-3.33958 3.19355,2.3285 7.01926,0.78659 10.85417,-4.37466 3.21596,-4.32822 3.63718,-4.2 1.71742,0.52279 -4.15245,10.21537 -12.28256,15.84747 -17.36718,12.03104 z M 88.866651,173.66974 C 77.422233,163.29088 72.056893,161.9359 68.70237,168.57739 c -1.415085,2.80167 -2.298611,2.71471 -4.556955,-0.44852 -1.027257,-1.43886 -3.015498,-3.42758 -4.418314,-4.41938 -3.008492,-2.12701 -2.58545,-2.32724 -10.409271,4.92687 -8.583795,7.95874 -13.16687,8.96112 -16.705583,3.65375 -1.487411,-2.23082 -1.487411,-2.23082 0.150205,-5.89316 1.882031,-4.20894 2.609569,-4.441 4.622905,-1.47457 2.90714,4.28337 5.992588,3.35532 14.02437,-4.21829 7.814036,-7.36828 10.854738,-7.75489 16.042794,-2.03977 1.802326,1.98543 1.802326,1.98543 3.506508,0.29432 5.816042,-5.77144 10.289114,-4.55502 21.14831,5.75114 9.132441,8.66735 12.303631,9.51836 17.333801,4.65164 3.95166,-3.82324 3.9801,-0.90011 0.0513,5.26892 -5.51985,8.66728 -10.252466,8.44686 -20.625759,-0.9606 z"
       id="path312"
       clip-path="url(#clipPath17311)"
       transform="translate(-30.228317,-149.78528)" /><path
       style="fill:#000000;fill-opacity:1;stroke:#000000;stroke-width:4.53543;stroke-dasharray:none;stroke-opacity:1"
       d="m 175.82876,762.4855 c -2.56912,-1.23904 -3.47793,-3.0152 -3.47793,-6.79722 0,-20.89871 42.70157,-94.07176 63.56838,-108.93024 10.31358,-7.34391 6.6475,-0.28692 -16.82994,32.39674 -19.59332,27.27645 -28.11827,45.58549 -25.01981,53.73506 1.12808,2.96707 2.49418,3.65185 7.22588,3.6221 11.78172,-0.0741 31.77421,-11.13349 63.77172,-35.27711 24.75466,-18.67856 23.4344,-12.72996 -2.9683,13.37403 -30.96082,30.61055 -60.27296,49.87899 -75.54321,49.6586 -3.98687,-0.0575 -8.81392,-0.85942 -10.72679,-1.78196 z"
       id="path7547"
       transform="matrix(0.26458333,0,0,0.26458333,-30.228317,-149.78528)"
       clip-path="url(#clipPath17307)" /><path
       style="fill:#000000;fill-opacity:1;stroke:#000000;stroke-width:2.26772;stroke-dasharray:none;stroke-opacity:1"
       d="m 186.51744,996.32943 c -0.78836,-3.58942 1.55336,-11.71535 5.85852,-20.32943 9.39622,-18.80067 26.61372,-42.78422 67.12249,-93.5 25.79557,-32.29528 36.97841,-47.12816 47.88772,-63.51807 6.9988,-10.51485 13.23887,-17.5569 14.46815,-16.32761 1.38418,1.38418 -3.46685,14.10938 -10.80578,28.34568 -10.76875,20.88959 -25.55649,42.09287 -59.80437,85.75 -24.29013,30.96359 -38.79769,49.96784 -50.71255,66.43114 -6.51264,8.99881 -11.40611,14.56886 -12.79922,14.56886 -0.58551,0 -1.01263,-0.49941 -1.21496,-1.42057 z"
       id="path8239"
       transform="matrix(0.26458333,0,0,0.26458333,-30.228317,-149.78528)"
       clip-path="url(#clipPath17303)" /><path
       style="fill:#000000;fill-opacity:1;stroke:#000000;stroke-width:6.41407;stroke-dasharray:none;stroke-opacity:1"
       d="m 506.07226,865.14515 c 1.86606,-28.08743 7.30273,-51.32029 27.05411,-115.61196 19.58386,-63.74638 24.80398,-87.12582 24.74982,-110.84746 -0.0441,-19.32563 -4.77103,-28.47139 -16.79698,-32.49932 -11.72332,-3.92656 -17.15541,-1.19703 -22.73919,11.42603 -3.46314,7.82901 -9.375,15.24813 -12.15034,15.24813 -1.08276,0 -2.36902,-1.59517 -2.85835,-3.54483 -2.44533,-9.74296 5.90722,-27.02501 19.82712,-41.02377 12.41457,-12.48491 18.14558,-15.34634 29.14317,-14.55085 15.74001,1.13853 23.96241,11.9667 25.11175,33.06994 1.31125,24.07607 -5.6535,55.24833 -25.18294,112.71172 -14.7788,43.48513 -20.87648,65.06387 -27.62446,97.75863 -5.93619,28.76157 -9.67322,43.67496 -13.52153,53.9605 -4.44598,11.88293 -6.07505,9.90133 -5.01218,-6.09676 z"
       id="path8241"
       transform="matrix(0.26458333,0,0,0.26458333,-30.228317,-149.78528)"
       clip-path="url(#clipPath17299)" /><path
       style="fill:#000000;fill-opacity:1;stroke:#000000;stroke-width:5.65795;stroke-dasharray:none;stroke-opacity:1"
       d="m 377.35459,682.28482 c -9.95922,-2.08264 -21.78761,-9.9399 -43.61971,-28.97528 -26.57837,-23.17367 -41.18269,-31.75962 -54.02493,-31.76156 -6.25984,-9.5e-4 -8.14415,0.67384 -12.4577,4.46118 -2.79525,2.45426 -6.27106,6.79251 -7.72402,9.64055 -5.35325,10.49324 -5.59933,10.42452 -21.63146,-6.04077 -14.91856,-15.32163 -19.6555,-18.17402 -25.64748,-15.44389 -1.76534,0.80434 -10.15066,7.73806 -18.63404,15.40827 -21.05748,19.03902 -26.86452,23.60218 -36.45798,28.64864 -14.39027,7.56972 -24.66392,5.08219 -33.38435,-8.08324 -5.05556,-7.6325 -4.95815,-8.807 1.88617,-22.74319 5.8787,-11.97001 8.52304,-12.6117 14.97107,-3.63298 11.4052,15.88147 22.96924,12.77729 52.40999,-14.06861 31.05099,-28.31421 41.40989,-30.05006 60.75208,-10.18027 3.46767,3.56226 7.22006,6.47684 8.33862,6.47684 1.11857,0 5.13611,-2.90188 8.92787,-6.44863 19.93657,-18.64833 35.17872,-14.06912 75.4236,22.65956 26.90683,24.55597 34.08788,29.04391 46.47259,29.04391 7.00829,0 8.47466,-0.59899 16.44505,-6.71752 14.90068,-11.43862 14.157,-11.04725 14.157,-7.45037 0,4.03672 -8.36366,19.92795 -15.20514,28.89029 -10.23659,13.40989 -20.09161,18.59762 -30.99723,16.31707 z"
       id="path9071"
       transform="matrix(0.26458333,0,0,0.26458333,-30.228317,-149.78528)"
       clip-path="url(#clipPath17295)" /><path
       style="fill:#000000;fill-opacity:1;stroke:#000000;stroke-width:4.00078;stroke-dasharray:none;stroke-opacity:1"
       d="m 432.31256,691.63488 c -3.50144,-1.25124 -6.94291,-3.45796 -9.40271,-6.02913 -1.99038,-2.08051 -2.03078,-2.25863 -1.17399,-5.17606 1.43527,-4.88721 9.86538,-21.94414 11.89017,-24.05782 1.02453,-1.0695 2.38334,-1.94454 3.01957,-1.94454 0.63624,0 3.37974,1.42222 6.09667,3.16049 8.3053,5.31366 15.57452,5.70212 23.81327,1.27258 4.97514,-2.67487 12.93504,-10.36972 19.54815,-18.89723 3.02944,-3.90643 6.38382,-7.8981 7.45418,-8.87037 l 1.94609,-1.76776 -0.52102,1.76776 c -1.41909,4.81486 -5.78229,15.78631 -8.155,20.5061 -7.61158,15.14094 -21.37161,30.97536 -31.45117,36.1926 -8.9486,4.63184 -17.07045,5.98525 -23.06421,3.84338 z"
       id="path10696"
       transform="matrix(0.26458333,0,0,0.26458333,-30.228317,-149.78528)"
       clip-path="url(#clipPath17291)" /><path
       style="fill:#000000;fill-opacity:1;stroke:#000000;stroke-width:4.00078;stroke-dasharray:none;stroke-opacity:1"
       d="m 325.62267,923.99648 c 0,-6.25822 5.42998,-20.61251 15.48376,-40.93176 8.03014,-16.22935 13.00386,-25.06471 20.23788,-35.9508 5.60934,-8.4412 11.91139,-15.9099 13.42468,-15.9099 0.52247,0 2.36634,1.08117 4.0975,2.40259 4.46007,3.40445 5.6992,3.96137 8.81386,3.96137 3.06016,0 7.47582,-2.54982 11.24752,-6.49487 4.06111,-4.24778 13.91035,-17.95649 20.74,-28.86709 11.75343,-18.77648 21.71262,-33.50304 24.38363,-36.05582 l 2.58949,-2.47488 -0.50906,2.12132 c -2.6429,11.01332 -32.92085,65.72171 -47.93951,86.62058 -6.43987,8.96126 -13.92934,16.5135 -18.19678,18.34931 -4.5665,1.96445 -6.50517,1.53617 -11.2047,-2.47527 -2.02717,-1.73037 -4.11267,-3.14611 -4.63443,-3.14611 -1.67067,0 -5.1181,3.44835 -7.97315,7.97527 -1.52593,2.4195 -7.63546,13.30864 -13.57671,24.19809 -11.0535,20.25943 -16.22741,29.34493 -16.71101,29.34493 -0.15013,0 -0.27297,-1.20013 -0.27297,-2.66696 z"
       id="path12321"
       transform="matrix(0.26458333,0,0,0.26458333,-30.228317,-149.78528)"
       clip-path="url(#clipPath17287)" /><path
       style="fill:#000000;fill-opacity:1;stroke:#000000;stroke-width:2.82898;stroke-dasharray:none;stroke-opacity:1"
       d="m 318.40118,771.22496 c -2.43436,-0.93793 -3.95193,-5.68396 -5.18525,-16.21627 -1.92536,-16.44216 -3.49408,-22.98854 -7.43069,-31.00869 -2.78208,-5.668 -5.4907,-9.42083 -11.7285,-16.25 -5.4087,-5.92146 -5.93036,-7.29795 -4.19901,-11.07973 1.9358,-4.22834 11.69497,-16.81371 14.3722,-18.53431 2.01082,-1.2923 2.62539,-1.43787 5.38134,-1.27462 2.64623,0.15676 3.54304,0.4808 6,2.16796 5.02406,3.44995 10.35667,11.73838 13.33127,20.7207 4.33286,13.08383 4.98304,31.07133 1.73502,48 -2.75738,14.37142 -8.31608,25.0008 -12.27638,23.47496 z"
       id="path13358"
       transform="matrix(0.26458333,0,0,0.26458333,-30.228317,-149.78528)"
       clip-path="url(#clipPath17283)" /></g></svg>
