<?xml version="1.0" encoding="UTF-8" standalone="no"?>
<!-- Created with Inkscape (http://www.inkscape.org/) -->

<svg
   width="78.993935mm"
   height="57.570061mm"
   viewBox="0 0 78.993935 57.570061"
   version="1.1"
   id="svg20513"
   xml:space="preserve"
   sodipodi:docname="xemacs_black_reg.svg"
   inkscape:version="1.2.2 (b0a8486541, 2022-12-01)"
   inkscape:export-filename="xemacs_black_reg.png"
   inkscape:export-xdpi="96"
   inkscape:export-ydpi="96"
   xmlns:inkscape="http://www.inkscape.org/namespaces/inkscape"
   xmlns:sodipodi="http://sodipodi.sourceforge.net/DTD/sodipodi-0.dtd"
   xmlns="http://www.w3.org/2000/svg"
   xmlns:svg="http://www.w3.org/2000/svg"><sodipodi:namedview
     id="namedview30"
     pagecolor="#ffffff"
     bordercolor="#000000"
     borderopacity="0.25"
     inkscape:showpageshadow="2"
     inkscape:pageopacity="0.0"
     inkscape:pagecheckerboard="0"
     inkscape:deskcolor="#d1d1d1"
     inkscape:document-units="mm"
     showgrid="false"
     inkscape:zoom="1.5441921"
     inkscape:cx="73.501217"
     inkscape:cy="-61.844636"
     inkscape:window-width="1251"
     inkscape:window-height="1378"
     inkscape:window-x="2367"
     inkscape:window-y="112"
     inkscape:window-maximized="1"
     inkscape:current-layer="layer1" /><defs
     id="defs20510" /><g
     id="layer1"
     transform="matrix(0.99670438,0,0,1.0000054,-63.357649,-102.12744)"><path
       style="fill:#000000;fill-opacity:1;stroke:#000000;stroke-width:0.596517;stroke-opacity:1"
       d="m 99.60163,102.65898 c -2.551219,3.79474 -6.369994,7.56886 -8.844497,11.17868 -0.953723,1.33412 -2.097177,3.8093 0.367345,3.98805 0.998594,0.0405 2.106876,-0.36307 3.169139,-0.75687 1.445614,-0.5359 2.918345,-1.14403 4.028203,-1.74425 8.38866,-4.53662 14.65439,-8.45769 22.24424,-12.25517 0.25794,-0.12905 0.40313,0.10146 0.21733,0.2968 -9.99422,5.63839 -20.40702,14.69349 -30.164115,17.39522 -3.105494,0.74522 -3.655312,-1.10134 -2.489433,-3.71729 2.677464,-5.14903 6.559414,-9.36373 10.082389,-13.37428 0.397634,-0.45396 1.689053,-1.39275 1.389399,-1.01089 z"
       id="path1724" /><circle
       id="path4795"
       style="fill:#000000;stroke:#000000;stroke-width:0.105833;fill-opacity:1;stroke-opacity:1"
       cx="85.736061"
       cy="120.65358"
       r="0.0077055097" /><path
       style="fill:#000000;fill-opacity:1;stroke:#000000;stroke-width:0.1588;stroke-dasharray:none;stroke-opacity:1"
       d="m 74.107775,149.66847 c -0.145487,0.22321 -0.239557,0.24044 -0.417845,0.24092 -0.144457,3.9e-4 -0.44992,-0.16463 -0.245102,-0.46858 1.357654,-2.01476 2.948472,-3.834 4.521004,-5.64525 1.02674,-1.1826 1.876999,-2.20316 2.855674,-3.3173 0.639807,-0.72837 1.351781,-1.4138 2.06429,-1.88285 0.294624,-0.19395 0.648676,-0.33891 0.963813,-0.32515 0.970537,0.0704 -2.161186,3.2041 -2.339591,3.34435 -0.241854,0.19118 -0.449337,0.4387 -0.691199,0.6466 -2.187275,2.21997 -4.383005,4.04258 -6.159375,6.56086 -0.193171,0.27586 -0.551669,0.8464 -0.551669,0.8464 z"
       id="path16677" /><path
       style="fill:#000000;fill-opacity:1;stroke:#000000;stroke-width:0.0861291;stroke-opacity:1"
       d="m 73.504923,149.65299 c 0,-0.20564 1.489478,-2.2785 2.385172,-3.31938 0.747246,-0.86837 3.474222,-4.04062 4.375343,-5.08977 1.515309,-1.76424 2.608815,-2.71253 3.28353,-2.84747 1.010114,-0.20202 0.137055,0.89254 -3.978197,4.98749 -3.27617,3.26 -4.625472,4.76681 -5.360532,5.98627 -0.255149,0.42329 -0.705316,0.60382 -0.705316,0.28286 z"
       id="path83234" /><path
       style="fill:#000000;fill-opacity:1;stroke:#000000;stroke-width:0.0152;stroke-dasharray:none;stroke-opacity:1"
       d="m 73.538667,149.94266 c -0.224326,-0.0973 -0.287594,-0.30584 -0.157979,-0.52075 0.198668,-0.32941 1.06087,-1.50592 1.634712,-2.23064 0.654934,-0.82712 1.212782,-1.4914 2.582039,-3.07466 0.496062,-0.5736 1.259922,-1.46159 1.697464,-1.97333 1.549069,-1.81173 1.958528,-2.26543 2.463761,-2.72993 0.88761,-0.81605 1.470823,-1.17131 1.983883,-1.20846 0.184357,-0.0134 0.276351,0.0239 0.333117,0.13489 0.05249,0.10263 0.03094,0.21671 -0.08695,0.4601 -0.199998,0.41293 -0.700257,1.05194 -1.506944,1.92493 -0.289529,0.31332 -0.724054,0.74524 -1.473499,1.46465 -0.724855,0.6958 -2.406642,2.33293 -3.039475,2.95875 -1.722917,1.70384 -2.726854,2.887 -3.609992,4.25445 -0.258264,0.3999 -0.323603,0.4788 -0.441977,0.53372 -0.09976,0.0463 -0.279034,0.0493 -0.37816,0.006 z m 0.254577,-0.112 c 0.1605,-0.06 0.357195,-0.259 0.522103,-0.52808 0.520033,-0.84855 1.436532,-1.93447 3.01345,-3.57051 0.281854,-0.29242 1.478369,-1.50248 2.658921,-2.68903 1.180552,-1.18655 2.309559,-2.33681 2.508904,-2.55612 1.367728,-1.50475 1.690766,-2.0079 1.374073,-2.14023 -0.08843,-0.0369 -0.258308,-0.0267 -0.437256,0.0263 -0.640035,0.18963 -1.638342,1.04869 -2.931873,2.52292 -0.831896,0.94811 -4.81289,5.59275 -5.091617,5.94042 -0.606934,0.75704 -1.411296,1.86616 -1.763389,2.4315 -0.159472,0.25606 -0.189834,0.31829 -0.189834,0.38909 0,0.093 0.04231,0.16867 0.109545,0.1958 0.06762,0.0273 0.104755,0.0237 0.226973,-0.0221 z"
       id="path83236" /><path
       style="fill:#000000;fill-opacity:1;stroke:#000000;stroke-width:0.004;stroke-dasharray:none;stroke-opacity:1"
       d="m 65.754291,145.49448 c -0.507853,-0.10098 -0.957993,-0.42668 -1.169641,-0.84629 -0.186262,-0.36929 -0.187618,-0.71207 -0.0052,-1.30771 0.555685,-1.81421 1.576446,-3.68554 3.13916,-5.75492 1.722738,-2.28129 4.148664,-4.79933 7.627541,-7.91716 0.29694,-0.26613 0.549926,-0.48386 0.562191,-0.48386 0.01226,0 -0.302529,0.32859 -0.699542,0.73021 -2.137989,2.16277 -4.41802,4.66936 -6.369226,7.0021 -1.053447,1.25944 -1.745014,2.25633 -2.189211,3.15576 -0.314699,0.63721 -0.477422,1.18969 -0.475976,1.61603 0.0017,0.49104 0.217354,0.91004 0.598779,1.16322 0.268027,0.1779 0.803558,0.34355 1.005733,0.31108 0.899074,-0.14439 1.634773,-0.42716 3.455842,-1.32825 2.156512,-1.06708 4.513454,-2.45298 7.38676,-4.34347 1.595288,-1.04963 2.475572,-1.66622 3.760621,-2.63413 0.381203,-0.28713 0.698145,-0.517 0.704316,-0.51083 0.01813,0.0181 -0.266161,0.47359 -0.442465,0.70887 -0.655606,0.87491 -1.395407,1.52322 -3.398617,2.97834 -0.469215,0.34084 -1.061335,0.78136 -1.315823,0.97895 -0.254489,0.19759 -0.586337,0.43886 -0.737439,0.53616 -0.151104,0.0973 -0.840826,0.5556 -1.532718,1.01846 -3.22927,2.1603 -4.732786,3.07595 -6.593737,4.01559 -1.059341,0.53489 -1.63851,0.76023 -2.26423,0.88097 -0.322834,0.0623 -0.815996,0.0768 -1.047144,0.0309 z"
       id="path83238" /><path
       style="fill:#000000;fill-opacity:1;stroke:#000000;stroke-width:0.104;stroke-dasharray:none;stroke-opacity:1"
       d="m 65.692163,146.08839 c -0.71981,-0.13061 -1.319796,-0.55064 -1.624433,-1.13721 -0.16741,-0.32234 -0.217268,-0.536 -0.217275,-0.9311 -5e-6,-0.30761 0.0092,-0.36296 0.121983,-0.73744 1.023059,-3.39545 3.51356,-6.92544 7.89482,-11.18998 2.172166,-2.1143 3.609841,-3.38968 8.21678,-7.2892 2.646419,-2.24006 3.683628,-3.13392 4.713826,-4.06238 0.417252,-0.37605 0.632064,-0.48898 0.921408,-0.51221 0.151256,-0.0121 0.196348,-0.005 0.306001,0.0478 0.251879,0.12193 0.292622,0.36928 0.107764,0.65423 -0.215767,0.33259 -0.529131,0.61651 -1.306253,1.18354 -0.574672,0.4193 -1.366408,1.04509 -2.212318,1.74861 -3.694593,3.07271 -7.996219,7.31465 -11.559323,11.39894 -2.076088,2.37976 -2.5615,2.97891 -3.253206,4.01546 -0.924807,1.38586 -1.237154,2.4455 -0.864767,2.93373 0.332463,0.30339 0.749487,0.36194 1.044043,0.3027 0.591178,-0.11942 1.166268,-0.34059 2.361542,-0.9082 2.483132,-1.17918 5.213377,-2.78559 8.700192,-5.11896 1.457253,-0.9752 1.675898,-1.12967 2.860557,-2.02094 0.483777,-0.36397 0.952267,-0.69584 1.041091,-0.73749 0.213246,-0.10001 0.578597,-0.10931 0.702775,-0.0179 0.10906,0.0803 0.167242,0.21429 0.167242,0.38519 0,0.25817 -0.377908,0.93257 -0.858523,1.53209 -0.650349,0.81125 -1.418696,1.47694 -3.200946,2.77328 -0.542415,0.39453 -1.199555,0.88319 -1.46031,1.08591 -0.260756,0.20272 -0.680695,0.50203 -0.933199,0.66514 -0.252504,0.16311 -0.852673,0.56183 -1.333707,0.88604 -2.49677,1.68282 -4.062924,2.6635 -5.617356,3.51743 -0.587068,0.3225 -1.734293,0.89709 -2.11008,1.05683 -1.021901,0.43438 -1.927376,0.59966 -2.608328,0.47609 z m 1.291485,-0.63288 c 0.598937,-0.14281 1.039212,-0.31855 1.995424,-0.7965 1.786349,-0.89288 3.274722,-1.78704 5.967695,-3.58515 0.777109,-0.51888 1.681556,-1.11995 2.009883,-1.33572 0.328328,-0.21576 0.7893,-0.5425 1.024382,-0.72607 0.235082,-0.18358 0.866899,-0.6532 1.404036,-1.04361 1.471446,-1.06948 2.041939,-1.53637 2.67233,-2.18702 0.382496,-0.39479 0.753233,-0.86694 0.944994,-1.20348 0.151539,-0.26595 0.171345,-0.31915 0.11006,-0.29563 -0.02588,0.01 -0.415297,0.29565 -0.865366,0.63492 -1.254334,0.94555 -1.933131,1.42054 -3.598848,2.51828 -3.145511,2.07296 -5.709877,3.56317 -8.052546,4.67952 -1.126529,0.53682 -1.676874,0.75582 -2.281762,0.90797 -0.547812,0.13779 -0.695908,0.14115 -1.05555,0.024 -0.57691,-0.188 -0.938311,-0.57191 -1.028569,-1.09264 -0.184267,-1.06308 0.790672,-2.86766 2.853614,-5.28194 2.501598,-2.92763 4.497762,-5.10073 6.741397,-7.33892 0.420125,-0.41911 0.758738,-0.76714 0.752472,-0.77341 -0.01317,-0.0132 -1.122658,0.96296 -1.987808,1.74887 -1.107376,1.00594 -1.921122,1.77951 -2.878213,2.73613 -2.216121,2.21501 -3.729974,4.00208 -4.973227,5.87077 -0.951705,1.43048 -1.576452,2.64392 -2.028415,3.93976 -0.294589,0.84463 -0.348644,1.1672 -0.255509,1.52477 0.140859,0.54079 0.632063,0.99083 1.231272,1.12808 0.282926,0.0648 0.912022,0.0392 1.298254,-0.0529 z"
       id="path83240"
       sodipodi:nodetypes="csscscsccsccssccsssccssssscsccccsscscssccssscscscccssssc" /><path
       style="fill:#000000;fill-opacity:1;stroke:#000000;stroke-width:0.000367115;stroke-dasharray:none;stroke-opacity:1"
       d="m 80.354476,142.67388 c -6.3e-5,-0.01 0.0024,-0.0125 0.144967,-0.15592 0.778769,-0.78345 1.723998,-1.7481 1.95884,-1.99909 0.13422,-0.14345 0.700665,-0.78089 0.693918,-0.78089 -7.41e-4,0 -0.01367,0.0142 -0.02882,0.0315 -0.383214,0.43796 -1.056832,1.15407 -1.738862,1.84855 -0.312096,0.31779 -0.538659,0.54762 -0.706707,0.71688 -0.109628,0.11042 -0.227229,0.22895 -0.261336,0.26339 l -0.06201,0.0626 -1.5e-5,-0.0601 -1.5e-5,-0.0601 0.151438,-0.15211 c 0.165518,-0.16626 0.339668,-0.34205 0.470983,-0.47543 0.04638,-0.0471 0.118295,-0.12015 0.15982,-0.16231 0.04153,-0.0422 0.126057,-0.12844 0.187849,-0.1917 0.06179,-0.0633 0.135403,-0.13861 0.163581,-0.16743 0.135156,-0.13823 0.384243,-0.3965 0.553484,-0.57388 0.753086,-0.78929 1.247566,-1.34641 1.531167,-1.72514 l 0.02665,-0.0356 6.35e-4,0.0783 6.35e-4,0.0783 -0.02738,0.0352 c -0.213806,0.27504 -0.531388,0.64469 -0.982242,1.1433 -0.128679,0.14231 -0.234858,0.25487 -0.402662,0.42687 -0.02263,0.0232 -0.08302,0.0853 -0.134196,0.13803 -0.05118,0.0527 -0.118958,0.12231 -0.150624,0.15465 -0.125466,0.12812 -0.17781,0.18152 -0.236747,0.24155 -0.03382,0.0344 -0.128112,0.13049 -0.209544,0.21344 -0.08143,0.083 -0.188386,0.19164 -0.237674,0.24155 -0.04929,0.0499 -0.133872,0.13559 -0.187963,0.1904 -0.138463,0.14031 -0.309222,0.31291 -0.460253,0.46522 -0.07111,0.0717 -0.149016,0.15052 -0.173113,0.17512 l -0.04381,0.0447 z m 2.806555,-2.94485 c 0.0033,-0.004 0.0054,-0.006 0.0047,-0.006 -7.41e-4,0 -0.004,0.003 -0.0073,0.006 -0.0033,0.004 -0.0054,0.006 -0.0047,0.006 7.41e-4,0 0.004,-0.003 0.0073,-0.006 z m 0.01661,-0.0192 c 0.0025,-0.003 0.0041,-0.005 0.0033,-0.005 -7.41e-4,0 -0.0034,0.002 -0.0059,0.005 -0.0025,0.003 -0.0041,0.005 -0.0033,0.005 7.41e-4,0 0.0034,-0.002 0.0059,-0.005 z"
       id="path83242" /><path
       style="fill:#000000;fill-opacity:1;stroke:#000000;stroke-width:0.00073423;stroke-dasharray:none;stroke-opacity:1"
       d="m 78.367029,143.45254 v -0.0623 l 0.921236,-1.07209 c 0.506679,-0.58965 0.957949,-1.11444 1.00282,-1.1662 0.04487,-0.0518 0.07884,-0.0924 0.07549,-0.0903 -0.01192,0.007 -1.286754,1.48421 -1.856004,2.1501 -0.149359,0.17472 -0.143545,0.16833 -0.143545,0.1578 0,-0.004 0.06603,-0.0849 0.146734,-0.17878 1.996921,-2.32339 2.249124,-2.61121 2.716455,-3.10004 0.433231,-0.45316 0.846832,-0.84131 1.19228,-1.1189 0.471828,-0.37916 0.834739,-0.57983 1.153901,-0.63808 0.07263,-0.0132 0.211488,-0.0159 0.255612,-0.005 0.164698,0.0413 0.197473,0.16619 0.09917,0.37798 -0.04739,0.1021 -0.147338,0.25973 -0.264678,0.41743 l -0.06454,0.0867 v -0.0778 -0.0778 l 0.03421,-0.0472 c 0.140218,-0.19367 0.229194,-0.35695 0.249727,-0.45828 0.01293,-0.0638 9.52e-4,-0.0976 -0.04212,-0.11878 -0.02306,-0.0114 -0.02995,-0.0121 -0.114012,-0.0118 -0.08004,3.1e-4 -0.09754,0.002 -0.166147,0.0164 -0.08927,0.0188 -0.16274,0.0418 -0.249065,0.0781 -0.58878,0.24766 -1.421282,0.97009 -2.509306,2.17755 -0.204277,0.2267 -0.33624,0.37812 -0.799777,0.91765 -0.08696,0.10122 -0.21349,0.24845 -0.281166,0.32718 -0.06768,0.0787 -0.201088,0.23402 -0.296467,0.34508 -0.09538,0.11106 -0.208116,0.24219 -0.250525,0.2914 -0.04241,0.0492 -0.175903,0.20449 -0.296653,0.34507 -0.396782,0.46197 -0.474059,0.55185 -0.493962,0.57457 l -0.01967,0.0225 z m 2.022212,-2.41478 0.01502,-0.0166 -0.01662,0.015 c -0.01549,0.014 -0.01897,0.0182 -0.01502,0.0182 8.47e-4,0 0.0084,-0.007 0.01662,-0.0166 z m 0.03291,-0.0371 c 0.0095,-0.01 0.01619,-0.0179 0.01479,-0.0179 -0.0014,0 -0.01036,0.008 -0.0199,0.0179 -0.0095,0.01 -0.01619,0.0179 -0.01479,0.0179 0.0014,0 0.01036,-0.008 0.0199,-0.0179 z m 0.03578,-0.0409 c 0.0095,-0.01 0.01619,-0.0179 0.01479,-0.0179 -0.0014,0 -0.01036,0.008 -0.0199,0.0179 -0.0095,0.01 -0.01619,0.0179 -0.01479,0.0179 0.0014,0 0.01036,-0.008 0.0199,-0.0179 z m 0.09514,-0.10863 c 0.100901,-0.11393 0.24252,-0.27178 0.306152,-0.34125 0.09905,-0.10813 0.245294,-0.26618 0.283831,-0.30673 0.125193,-0.13175 0.166479,-0.17464 0.268182,-0.27862 0.08881,-0.0908 0.09494,-0.0978 0.02911,-0.0332 -0.18356,0.18002 -0.569694,0.59468 -0.8569,0.92021 -0.04465,0.0506 -0.08816,0.0995 -0.09668,0.10863 -0.0085,0.009 -0.01415,0.0166 -0.01251,0.0166 0.0016,0 0.03711,-0.0385 0.07882,-0.0856 z m 1.111402,-1.18093 0.09964,-0.10097 -0.100966,0.0996 c -0.09381,0.0926 -0.103275,0.1023 -0.09964,0.1023 7.41e-4,0 0.04617,-0.0454 0.100967,-0.10097 z m 0.160987,-0.15465 c 0.02236,-0.0225 0.03951,-0.0409 0.0381,-0.0409 -0.0014,0 -0.02085,0.0184 -0.04322,0.0409 -0.02236,0.0225 -0.03951,0.0409 -0.0381,0.0409 0.0014,0 0.02085,-0.0184 0.04321,-0.0409 z m 0.08946,-0.0844 c 0.01527,-0.0155 0.02662,-0.0281 0.02521,-0.0281 -0.0014,0 -0.01505,0.0127 -0.03032,0.0281 -0.01527,0.0155 -0.02662,0.0281 -0.02521,0.0281 0.0014,0 0.01505,-0.0127 0.03033,-0.0281 z m 0.0639,-0.0588 c 0.01098,-0.0112 0.01882,-0.0204 0.01741,-0.0204 -0.0014,0 -0.01154,0.009 -0.02253,0.0204 -0.01098,0.0113 -0.01882,0.0205 -0.01741,0.0205 0.0014,0 0.01154,-0.009 0.02253,-0.0205 z m 0.05656,-0.0524 0.01502,-0.0166 -0.01662,0.015 c -0.0091,0.008 -0.01662,0.0157 -0.01662,0.0166 0,0.004 0.0042,4.2e-4 0.01821,-0.015 z m 0.05336,-0.0473 c 0.0066,-0.007 0.01086,-0.0128 0.0095,-0.0128 -0.0014,0 -0.008,0.006 -0.01456,0.0128 -0.0066,0.007 -0.01086,0.0128 -0.0095,0.0128 0.0014,0 0.008,-0.006 0.01456,-0.0128 z m 0.04378,-0.0396 0.01502,-0.0166 -0.01661,0.015 c -0.0091,0.008 -0.01662,0.0157 -0.01662,0.0166 0,0.004 0.0042,4.2e-4 0.01821,-0.015 z m 0.04058,-0.0345 c 0.0051,-0.006 0.0081,-0.0102 0.0067,-0.0102 -0.0014,0 -0.0067,0.005 -0.01181,0.0102 -0.0051,0.006 -0.0081,0.0102 -0.0067,0.0102 0.0014,0 0.0067,-0.005 0.01181,-0.0102 z m 0.04345,-0.0384 c 0.0066,-0.007 0.01086,-0.0128 0.0095,-0.0128 -0.0014,0 -0.008,0.006 -0.01456,0.0128 -0.0066,0.007 -0.01086,0.0128 -0.0095,0.0128 0.0014,0 0.008,-0.006 0.01456,-0.0128 z m 0.03323,-0.0281 c 0.0051,-0.006 0.0081,-0.0102 0.0067,-0.0102 -0.0014,0 -0.0067,0.005 -0.01181,0.0102 -0.0051,0.006 -0.0081,0.0102 -0.0067,0.0102 0.0014,0 0.0067,-0.005 0.01181,-0.0102 z m 0.03388,-0.0294 c 0.0064,-0.008 0.0062,-0.008 -0.0019,-0.002 -0.0049,0.004 -0.0089,0.008 -0.0089,0.009 0,0.004 0.0042,0.001 0.01088,-0.007 z m 0.03258,-0.0268 c 0.0051,-0.006 0.0081,-0.0102 0.0067,-0.0102 -0.0014,0 -0.0067,0.005 -0.01181,0.0102 -0.0051,0.006 -0.0081,0.0102 -0.0067,0.0102 0.0014,0 0.0067,-0.005 0.01181,-0.0102 z m 0.03067,-0.0256 c 0.0051,-0.006 0.0081,-0.0102 0.0067,-0.0102 -0.0014,0 -0.0067,0.005 -0.01181,0.0102 -0.0051,0.006 -0.0081,0.0102 -0.0067,0.0102 0.0014,0 0.0067,-0.005 0.01181,-0.0102 z m 0.202585,-0.16231 c 0.0064,-0.008 0.0062,-0.008 -0.0019,-0.002 -0.0085,0.007 -0.01122,0.0109 -0.007,0.0109 0.0011,0 0.0051,-0.004 0.0089,-0.009 z m 0.34698,-0.24447 c 0,-0.001 -0.0046,-1e-4 -0.01022,0.003 -0.0056,0.003 -0.01022,0.007 -0.01022,0.008 0,0.001 0.0046,9e-5 0.01022,-0.003 0.0056,-0.003 0.01022,-0.007 0.01022,-0.008 z m 0.0818,-0.0511 c 0,-10e-4 -0.0046,-9e-5 -0.01022,0.003 -0.0056,0.003 -0.01022,0.007 -0.01022,0.008 0,10e-4 0.0046,9e-5 0.01022,-0.003 0.0056,-0.003 0.01022,-0.007 0.01022,-0.008 z m 0.03579,-0.0204 c 0,-0.001 -0.0046,-1e-4 -0.01022,0.003 -0.0056,0.003 -0.01022,0.007 -0.01022,0.008 0,0.001 0.0046,9e-5 0.01022,-0.003 0.0056,-0.003 0.01022,-0.007 0.01022,-0.008 z m 0.954368,-0.003 c -0.0016,-0.004 -0.0028,-0.003 -0.0031,0.003 -2.11e-4,0.005 9.53e-4,0.008 0.0027,0.007 0.0017,-0.002 0.0019,-0.006 4.24e-4,-0.01 z m -0.928808,-0.0122 c 0,-0.001 -0.0046,-9e-5 -0.01022,0.003 -0.0056,0.003 -0.01022,0.007 -0.01022,0.008 0,0.001 0.0046,1e-4 0.01022,-0.003 0.0056,-0.003 0.01022,-0.007 0.01022,-0.008 z m 0.933952,-0.0265 c -0.0013,-0.005 -0.0023,-8.5e-4 -0.0023,0.009 0,0.01 0.0011,0.0139 0.0023,0.009 0.0013,-0.005 0.0013,-0.013 0,-0.0179 z m -0.877717,-0.004 c 0,-0.001 -0.0092,0.002 -0.02045,0.008 -0.01125,0.006 -0.02045,0.0116 -0.02045,0.013 0,0.001 0.0092,-0.002 0.02045,-0.008 0.01125,-0.006 0.02045,-0.0116 0.02045,-0.013 z m 0.11024,-0.0574 c -0.0023,-0.002 -0.105127,0.0491 -0.105127,0.0525 0,0.001 0.02406,-0.009 0.05347,-0.0241 0.02941,-0.0146 0.05265,-0.0274 0.05166,-0.0284 z m 0.767477,1e-4 c -0.0013,-0.005 -0.0023,-8.4e-4 -0.0023,0.009 0,0.01 0.0011,0.0139 0.0023,0.009 0.0013,-0.005 0.0013,-0.013 0,-0.0179 z m -0.687177,-0.0317 c 0.03002,-0.0125 0.05368,-0.0236 0.05258,-0.0247 -0.0025,-0.002 -0.115315,0.0448 -0.115315,0.0483 0,0.001 0.0018,0.002 0.0041,8.5e-4 0.0022,-9.5e-4 0.02864,-0.0119 0.05866,-0.0244 z m 0.67854,6.3e-4 c 0,-0.002 -0.0035,-0.009 -0.0077,-0.0141 -0.0072,-0.009 -0.0073,-0.009 -0.0017,0.004 0.006,0.0141 0.0095,0.0177 0.0095,0.01 z m -0.554678,-0.0468 c 0.03374,-0.011 0.05843,-0.0202 0.05486,-0.0203 -0.0083,-4.3e-4 -0.118765,0.0352 -0.118765,0.0383 0,0.003 -0.0044,0.004 0.0639,-0.0179 z m 0.07786,-0.0237 c -0.0017,-0.002 -0.0061,-0.002 -0.0098,-4.3e-4 -0.0041,0.002 -0.0029,0.003 0.0031,0.003 0.0054,2.2e-4 0.0084,-9.5e-4 0.0067,-0.003 z m 0.02045,-0.005 c -0.0017,-0.002 -0.0061,-0.002 -0.0098,-4.2e-4 -0.0041,0.002 -0.0029,0.003 0.0031,0.003 0.0054,2.1e-4 0.0084,-9.5e-4 0.0067,-0.003 z m 0.04995,-0.009 c 0.01687,-0.004 0.02492,-0.007 0.01789,-0.007 -0.01434,-3e-5 -0.06822,0.0129 -0.05624,0.0135 0.0042,2.1e-4 0.02147,-0.003 0.03834,-0.007 z m 0.05751,-0.0115 c -0.0049,-0.001 -0.01297,-0.001 -0.01789,0 -0.0049,10e-4 -8.47e-4,0.002 0.0089,0.002 0.0098,0 0.01387,-0.001 0.0089,-0.002 z m 0.04096,-0.005 c -0.0049,-0.001 -0.01409,-0.001 -0.02045,-1e-4 -0.0064,10e-4 -0.0024,0.002 0.0089,0.002 0.01125,6e-5 0.01645,-9.5e-4 0.01156,-0.002 z m 0.09196,-0.005 c -0.01336,-10e-4 -0.03521,-10e-4 -0.04857,0 -0.01336,0.001 -0.0024,0.002 0.02428,0.002 0.02671,0 0.03764,-8.4e-4 0.02428,-0.002 z"
       id="path83244" /><path
       style="fill:#000000;fill-opacity:1;stroke:#000000;stroke-width:0.00073423;stroke-dasharray:none;stroke-opacity:1"
       d="m 76.572659,146.44651 2.6e-5,-0.0575 0.06482,-0.069 c 0.724569,-0.77147 1.380103,-1.44098 2.819297,-2.8794 l 0.893777,-0.89329 v 0.0572 0.0572 l -1.013633,1.015 c -0.942933,0.9442 -1.242449,1.24668 -1.688448,1.70515 -0.332181,0.34146 -0.633532,0.65614 -0.919203,0.95986 -0.08395,0.0893 -0.153538,0.16227 -0.154646,0.16227 -0.0011,0 -0.002,-0.0259 -0.002,-0.0575 z"
       id="path83246" /><path
       style="fill:#000000;fill-opacity:1;stroke:#000000;stroke-width:0.00073423;stroke-dasharray:none;stroke-opacity:1"
       d="m 76.572634,145.52909 v -0.0723 l 0.07576,-0.0885 c 1.406737,-1.64431 1.715844,-2.00379 1.717833,-1.99782 0.0011,0.003 -0.0015,0.009 -0.0057,0.0142 -0.0041,0.005 -0.345181,0.40318 -0.757904,0.88539 -0.412725,0.48222 -0.75634,0.88365 -0.763591,0.89209 l -0.01318,0.0153 0.01356,-0.0128 c 0.0075,-0.007 0.08678,-0.0981 0.176264,-0.20239 0.497188,-0.5794 1.315596,-1.53083 1.331999,-1.5485 l 0.01904,-0.0205 2.6e-5,0.0613 2.5e-5,0.0614 -0.167324,0.19473 c -0.09203,0.1071 -0.221565,0.25778 -0.28786,0.33485 -0.297985,0.3464 -0.354936,0.41263 -0.518361,0.60278 -0.09545,0.11106 -0.215139,0.25024 -0.26597,0.30929 -0.107597,0.12499 -0.343284,0.39928 -0.45685,0.53167 -0.04341,0.0506 -0.08318,0.0966 -0.08838,0.10211 -0.0092,0.01 -0.0095,0.008 -0.0095,-0.0623 z m 0.09267,-0.15871 c 0.0064,-0.008 0.0062,-0.008 -0.0019,-0.002 -0.0049,0.004 -0.0089,0.008 -0.0089,0.009 0,0.004 0.0042,0.001 0.01088,-0.007 z m 0.02556,-0.0307 c 0.0064,-0.008 0.0062,-0.008 -0.0019,-0.002 -0.0049,0.004 -0.0089,0.008 -0.0089,0.009 0,0.004 0.0042,0.001 0.01088,-0.007 z m 0.03258,-0.0371 c 0.0051,-0.006 0.0081,-0.0102 0.0067,-0.0102 -0.0014,0 -0.0067,0.005 -0.01181,0.0102 -0.0051,0.006 -0.0081,0.0102 -0.0067,0.0102 0.0014,0 0.0067,-0.005 0.01181,-0.0102 z m 0.02812,-0.0332 c 0.0066,-0.007 0.01086,-0.0128 0.0095,-0.0128 -0.0014,0 -0.008,0.006 -0.01456,0.0128 -0.0066,0.007 -0.01086,0.0128 -0.0095,0.0128 0.0014,0 0.008,-0.006 0.01456,-0.0128 z m 0.03355,-0.0396 0.01502,-0.0166 -0.01662,0.015 c -0.01549,0.014 -0.01896,0.0182 -0.01502,0.0182 8.47e-4,0 0.0084,-0.007 0.01662,-0.0166 z m 0.03067,-0.0358 0.01502,-0.0166 -0.01662,0.015 c -0.01549,0.014 -0.01897,0.0182 -0.01502,0.0182 8.47e-4,0 0.0084,-0.007 0.01662,-0.0166 z"
       id="path83248" /><path
       style="fill:#000000;fill-opacity:1;stroke:#000000;stroke-width:0.1836;stroke-dasharray:none;stroke-opacity:1"
       d="m 92.005894,152.22031 c -0.01498,-0.50603 4.131481,-5.54881 6.211038,-7.55366 3.927348,-3.78627 10.337538,-7.73486 16.482718,-10.15314 2.97574,-1.17103 7.53687,-2.32779 13.29095,-3.37075 2.74425,-0.49741 5.75273,-1.04594 6.68552,-1.21896 3.62955,-0.6732 5.32093,-2.2264 5.03767,-4.6261 -0.0499,-0.42254 -0.21366,-1.01147 -0.36396,-1.30873 -0.87946,-1.73937 -2.2588,-2.22746 -5.39592,-1.90942 -1.01099,0.1025 -2.02804,0.13871 -2.2601,0.0805 -0.61108,-0.15337 -0.80847,-0.6179 -0.59672,-1.40429 0.42743,-1.58733 3.38106,-5.08009 5.38474,-6.36761 1.4429,-0.92719 1.76627,-0.84748 0.48981,0.12073 -1.42176,1.07841 -2.38607,2.16259 -2.87671,3.2343 -0.70584,1.54175 -0.21701,2.22538 1.31181,1.8346 1.02701,-0.26252 4.02409,-0.26017 4.9634,0.004 0.47771,0.13429 0.90448,0.43856 1.42112,1.01319 1.2054,1.34069 1.33513,2.85851 0.41214,4.82208 -0.72809,1.54895 -3.84604,4.37094 -6.0694,5.49329 -1.90318,0.96072 -5.38653,1.82978 -11.41523,2.84797 -7.41905,1.25301 -10.05915,2.05798 -15.45656,4.71272 -5.21451,2.56479 -8.13067,4.39211 -10.960504,6.86804 -1.672061,1.46294 -3.837452,3.78415 -4.966419,5.32379 -1.106849,1.50947 -1.323312,1.76309 -1.329393,1.5576 z"
       id="path86154" /><path
       style="fill:#000000;fill-opacity:1;stroke:#000000;stroke-width:0.00073423;stroke-dasharray:none;stroke-opacity:1"
       d="m 126.73391,132.39736 v -0.99889 l 0.0115,-0.003 c 0.0132,-0.003 0.32535,-0.0621 0.62497,-0.11799 0.11247,-0.021 0.59213,-0.10855 1.0659,-0.19463 1.62288,-0.29484 3.16713,-0.57568 3.60157,-0.65497 0.239,-0.0436 0.59788,-0.1091 0.79751,-0.14551 0.19964,-0.0364 0.3693,-0.0675 0.37703,-0.0691 l 0.0141,-0.003 v 0.88141 0.8814 l -0.078,0.0218 c -1.5011,0.41954 -3.23817,0.80928 -5.52505,1.23965 -0.37116,0.0699 -0.87113,0.16149 -0.88105,0.16149 -0.008,0 -0.008,-0.0718 -0.008,-0.99889 z"
       id="path86168" /><path
       style="fill:#000000;fill-opacity:1;stroke:#000000;stroke-width:0.0117477;stroke-dasharray:none;stroke-opacity:1"
       d="m 74.387152,159.27937 c 0,-0.0494 0.06059,-0.20758 0.134654,-0.35156 0.172737,-0.33581 1.396133,-2.18903 1.855624,-2.81093 3.453269,-4.67381 4.66674,-6.36225 6.897672,-9.59752 0.853102,-1.23716 1.680482,-2.43343 1.838621,-2.65836 0.158139,-0.22494 0.466279,-0.66664 0.684757,-0.98155 2.384664,-3.43727 4.935943,-6.79642 6.864713,-9.03844 2.064788,-2.40013 5.656749,-5.72571 6.18435,-5.72571 0.519566,0 0.178339,1.92182 -0.665545,3.7484 -0.175698,0.3803 -0.319451,0.72049 -0.319451,0.75597 0,0.0868 0.239317,0.32159 0.327804,0.32159 0.128968,0 1.306302,-1.24364 2.981239,-3.14914 2.55198,-2.90326 4.35782,-4.55416 5.78635,-5.28984 0.83731,-0.43121 2.38601,-0.8036 3.34299,-0.80384 1.96497,-5.3e-4 3.28084,1.0443 3.28084,2.60493 0,0.68397 -0.11044,1.10818 -0.48172,1.85023 -0.8388,1.67643 -2.19615,3.06219 -4.88356,4.98578 -0.96776,0.6927 -2.17436,1.3256 -2.17436,1.14052 0,-0.0698 0.47196,-0.44189 1.58733,-1.25133 1.54732,-1.12291 2.07701,-1.55828 2.70228,-2.22109 1.22247,-1.29589 1.36065,-2.45416 0.40013,-3.35416 -0.76315,-0.71506 -1.24324,-0.90274 -2.29816,-0.89839 -1.25242,0.005 -2.21647,0.28581 -3.42233,0.99628 -1.94994,1.14888 -3.55245,2.65685 -5.814889,5.47184 -1.918448,2.38699 -3.636462,4.07368 -3.830135,3.76031 -0.06205,-0.1004 0.02736,-0.54302 0.154963,-0.76707 0.05051,-0.0887 0.279715,-0.42839 0.509336,-0.75487 1.230836,-1.75 1.627358,-3.55243 0.85215,-3.87354 -0.515946,-0.21371 -1.356624,0.38457 -3.235153,2.30234 -2.257712,2.30488 -4.137424,4.79472 -8.54525,11.31894 -0.382396,0.566 -0.918214,1.34899 -1.190709,1.73997 -0.272495,0.39098 -1.19134,1.7231 -2.041878,2.96027 -1.714744,2.4942 -3.3231,4.74694 -4.321486,6.05288 -1.062054,1.38923 -1.775088,2.30443 -2.121325,2.72281 -0.342295,0.4136 -1.039852,0.94643 -1.039852,0.79428 z"
       id="path86176" /><path
       style="fill:#000000;fill-opacity:1;stroke:#000000;stroke-width:0.84;stroke-dasharray:none;stroke-opacity:1"
       d="m 74.430702,159.23077 c 0,-0.22036 1.333646,-2.23918 2.738348,-4.14519 2.721102,-3.6922 3.950271,-5.41103 6.429735,-8.99112 4.450899,-6.42665 6.606966,-9.33673 8.912902,-12.0299 2.141534,-2.50116 5.80635,-5.92702 6.340421,-5.92702 0.139237,0 0.196546,0.15986 0.196546,0.54827 0,0.74703 -0.292548,1.78739 -0.890994,3.16854 l -0.343145,0.79195 0.145331,0.15169 c 0.07993,0.0834 0.183636,0.1517 0.230452,0.1517 0.113706,0 1.249583,-1.17398 2.549642,-2.63516 3.44739,-3.87465 5.06753,-5.32558 6.68701,-5.98862 0.48841,-0.19997 1.56814,-0.47139 2.17621,-0.54707 1.86006,-0.23149 3.36226,0.44406 3.81032,1.71352 0.14812,0.41965 0.16808,1.21278 0.0427,1.69662 -0.15703,0.606 -0.66103,1.55369 -1.23174,2.31611 -1.05283,1.40649 -3.83771,3.68416 -5.56876,4.55452 -0.50104,0.25191 -0.67214,0.27355 -0.41414,0.0524 0.0975,-0.0836 0.64458,-0.49725 1.21571,-0.91924 1.92998,-1.42602 2.44059,-1.85162 3.01001,-2.50885 0.65087,-0.75123 0.90122,-1.28786 0.89873,-1.92638 -0.002,-0.48598 -0.15541,-0.82205 -0.57521,-1.25923 -0.41058,-0.42757 -0.82711,-0.70218 -1.27596,-0.84122 -0.30134,-0.0933 -0.47729,-0.11136 -1.06982,-0.10955 -1.16338,0.004 -1.88717,0.18233 -2.96709,0.73291 -2.03183,1.03589 -3.74081,2.58644 -6.276399,5.69458 -1.664652,2.04054 -3.063736,3.50382 -3.587936,3.75257 -0.246436,0.11694 -0.288164,0.0471 -0.193232,-0.32346 0.05864,-0.22889 0.2077,-0.50015 0.594662,-1.08214 0.861247,-1.29533 1.260742,-2.27435 1.260742,-3.08963 0,-0.44156 -0.06566,-0.62574 -0.284418,-0.79782 -0.433237,-0.34078 -1.17878,0.10095 -2.723614,1.61373 -2.560493,2.50736 -4.150388,4.55828 -8.645251,11.15212 -4.505471,6.60941 -6.792414,9.85577 -8.567102,12.16117 -1.535387,1.99455 -1.793657,2.30293 -2.197309,2.6237 -0.410564,0.32626 -0.427361,0.33591 -0.427361,0.24552 z"
       id="path86385" /><path
       style="fill:#000000;fill-opacity:1;stroke:#000000;stroke-width:0.84;stroke-dasharray:none;stroke-opacity:1"
       d="m 73.583839,149.68257 c 0,-0.10404 0.883502,-1.39137 1.557128,-2.26886 0.518986,-0.67605 4.459877,-5.29488 5.791117,-6.78734 1.206443,-1.35255 2.623262,-2.40142 2.88725,-2.13744 0.186696,0.1867 -0.958253,1.4548 -5.219215,5.78062 -2.731242,2.77281 -3.357125,3.46449 -4.132028,4.56643 -0.507806,0.72211 -0.884252,1.08253 -0.884252,0.84659 z"
       id="path93539" /><path
       style="fill:#000000;fill-opacity:1;stroke:#000000;stroke-width:0.84;stroke-dasharray:none;stroke-opacity:1"
       d="m 73.336895,150.01983 c -0.271182,-0.27119 0.234011,-1.18516 1.632295,-2.9531 0.695964,-0.87995 5.245313,-6.19353 6.038745,-7.05318 1.044547,-1.13172 2.133051,-1.88233 2.729671,-1.88233 0.255192,0 0.333495,0.055 0.388065,0.27238 0.134098,0.53429 -0.03418,0.73203 -4.856917,5.7072 -1.862021,1.92087 -3.696788,3.89731 -4.077259,4.39208 -0.380471,0.49477 -0.835746,1.05437 -1.011722,1.24354 -0.296266,0.3185 -0.674955,0.44133 -0.842878,0.27341 z m 8.819444,-10.02778 c 0,-0.13635 -0.674199,0.51549 -1.085571,1.04958 -0.239316,0.31071 -0.138285,0.24113 0.379754,-0.26152 0.3882,-0.37668 0.705817,-0.7313 0.705817,-0.78806 z"
       id="path93679" /><path
       style="fill:#000000;fill-opacity:1;stroke:#000000;stroke-width:0.84;stroke-dasharray:none;stroke-opacity:1"
       d="m 97.380988,131.2196 c -0.23269,-0.27693 -0.355413,-0.33316 -0.72716,-0.33316 h -0.447226 l 0.52056,-0.47865 c 1.015321,-0.93359 1.733518,-1.51334 1.796591,-1.45027 0.12665,0.12665 -0.649481,2.62786 -0.807913,2.60363 -0.0302,-0.005 -0.180888,-0.15832 -0.334852,-0.34155 z"
       id="path95997" /><path
       style="fill:#000000;fill-opacity:1;stroke:#000000;stroke-width:0.84;stroke-dasharray:none;stroke-opacity:1"
       d="m 111.79189,128.72135 c -0.002,-0.42035 -0.0741,-0.6955 -0.27243,-1.03386 -0.35355,-0.60329 -1.19437,-1.25907 -1.87258,-1.46048 -1.18976,-0.35332 -2.85537,-0.11896 -4.30027,0.60508 -1.18584,0.59423 -1.18216,0.59357 -0.7536,0.13361 0.58196,-0.62463 1.87448,-1.62187 2.53282,-1.9542 1.79889,-0.90807 3.88447,-1.03948 5.02437,-0.31658 1.18778,0.75327 1.21795,2.14365 0.0849,3.9113 l -0.44095,0.68791 -0.002,-0.57278 z"
       id="path95999" /><path
       style="fill:#000000;fill-opacity:1;stroke:#000000;stroke-width:0.84;stroke-dasharray:none;stroke-opacity:1"
       d="m 73.075839,150.28088 c -0.189162,-0.18916 -0.153668,-0.7817 0.07348,-1.22659 0.288962,-0.56597 1.279697,-1.92247 2.214215,-3.03166 2.434633,-2.8897 5.260719,-6.12513 5.876337,-6.72747 1.688811,-1.65242 3.244805,-1.99598 3.244805,-0.71645 0,0.55245 -0.440775,1.08435 -3.795021,4.57959 -3.621055,3.77326 -4.479037,4.69889 -5.433805,5.86218 -0.411304,0.50113 -0.872422,1.01807 -1.024708,1.14875 -0.305119,0.26183 -0.943432,0.32352 -1.155299,0.11165 z"
       id="path98772" /><path
       style="fill:#000000;fill-opacity:1;stroke:#000000;stroke-width:1.18794;stroke-dasharray:none;stroke-opacity:1"
       d="m 124.05249,126.90832 c -0.82709,-0.77261 -0.95402,-1.66544 -0.53004,-3.72822 0.28544,-1.38875 0.78703,-2.3695 2.12317,-4.15142 1.07886,-1.43879 3.57721,-4.06116 3.7267,-3.91167 0.0498,0.0498 -0.27778,0.54711 -0.72787,1.10522 -2.09867,2.6024 -2.66664,3.74743 -2.76768,5.57972 -0.0901,1.6345 0.26016,2.43451 1.29431,2.956 0.82173,0.41438 1.41811,0.42444 2.42733,0.041 0.42815,-0.16268 0.80345,-0.2708 0.83399,-0.24025 0.12131,0.12131 -2.20934,1.73656 -3.15653,2.21356 -0.80667,0.40623 -1.16643,0.56754 -1.87558,0.56754 -0.76976,0 -0.94649,-0.0566 -1.3478,-0.43145 z"
       id="path102404"
       sodipodi:nodetypes="csssccsscsscc" /><path
       style="fill:#000000;fill-opacity:1;stroke:#000000;stroke-width:0.32;stroke-dasharray:none;stroke-opacity:1"
       d="m 115.1011,131.23617 c -0.52887,-0.41601 0.18726,-0.60389 1.79399,-2.61657 1.9654,-2.46197 2.36627,-2.98524 2.45317,-4.77153 0.0551,-1.13174 -0.0456,-2.94189 -1.25349,-3.15968 -0.39893,-0.0719 -1.31324,0.002 -1.86622,0.2529 -1.21726,0.55168 -1.55132,1.48665 -1.8514,1.09037 -0.15558,-0.20547 -0.25309,-0.38673 -0.14114,-0.58208 1.20991,-2.11121 4.70194,-4.31242 6.71142,-3.03954 2.01911,1.27899 1.93215,4.28007 1.21877,6.02419 -0.69595,1.70152 -2.05891,2.85196 -4.04904,4.84308 -2.11592,2.11697 -2.32162,2.50511 -3.01606,1.95886 z"
       id="path109166"
       sodipodi:nodetypes="sssssssssss" /></g></svg>
